<svg id="Layer_1" enable-background="new 0 0 256 256" height="512" viewBox="0 0 256 256" width="512" xmlns="http://www.w3.org/2000/svg"><path d="m21.607 190.023c-10.56-18.244-16.607-39.427-16.607-62.023 0-68.483 55.517-124 124-124s124 55.517 124 124-55.517 124-124 124c-22.596 0-43.779-6.047-62.023-16.607l-20.151 5.4-41.826 11.207 11.207-41.826z" fill="#f4efed"/><path d="m136.896 141.49v13.701c0 5.902-4.426 10.328-10.328 10.328-5.481 0-10.328-4.426-10.328-10.328v-21.922c0-.21.21-.21.21-.421-.21-.211-.21-.211-.21-.422 0-5.481 4.847-10.329 10.328-10.329 13.28 0 24.03-10.539 24.03-23.608 0-13.279-10.75-23.608-24.03-23.608-8.641 0-16.231 4.637-20.235 11.593-2.952 5.059-9.275 6.745-14.334 3.795-4.849-2.951-6.534-9.064-3.584-14.123 7.588-13.069 21.921-21.922 38.152-21.922 24.452 0 44.476 19.814 44.476 44.265.001 20.869-14.544 38.364-34.147 43.001z" fill="#fcc24c"/><path d="m136.896 187.652v3.795c0 5.902-4.426 10.328-10.328 10.328-5.481 0-10.328-4.426-10.328-10.328v-3.795c0-5.691 4.847-10.328 10.328-10.328 5.902 0 10.328 4.637 10.328 10.328z" fill="#fcc24c"/><path d="m5 252 10.773-2.887 10.434-38.939 5.399-20.151c-10.559-18.244-16.606-39.427-16.606-62.023 0-66.808 52.836-121.266 119-123.891-1.659-.066-3.325-.109-5-.109-68.483 0-124 55.517-124 124 0 22.596 6.047 43.779 16.607 62.023l-5.399 20.151z" fill="#fff"/><path d="m129 4c-1.676 0-3.341.043-5 .109 66.164 2.625 119 57.083 119 123.891 0 66.805-52.832 121.261-118.992 123.891 1.657.066 3.319.109 4.992.109 68.483 0 124-55.517 124-124s-55.517-124-124-124z" fill="#d6d1cf"/><g fill="#690589"><path d="m5 254c-.523 0-1.034-.206-1.414-.586-.505-.505-.703-1.242-.518-1.932l16.393-61.18c-10.772-18.902-16.461-40.425-16.461-62.302 0-69.477 56.523-126 126-126s126 56.523 126 126-56.523 126-126 126c-21.879 0-43.402-5.689-62.303-16.461l-61.18 16.393c-.17.046-.344.068-.517.068zm61.977-20.607c.349 0 .695.091 1.002.269 18.466 10.689 39.566 16.338 61.021 16.338 67.271 0 122-54.729 122-122s-54.729-122-122-122-122 54.729-122 122c0 21.454 5.649 42.554 16.337 61.021.266.46.338 1.006.201 1.52l-15.709 58.63 58.631-15.71c.17-.045.344-.068.517-.068z"/><path d="m13.413 127.233c-1.104 0-2-.896-2-2 0-4.119.309-8.257.918-12.298.165-1.092 1.182-1.841 2.275-1.68 1.092.165 1.844 1.183 1.68 2.275-.579 3.845-.873 7.782-.873 11.702 0 1.106-.896 2.001-2 2.001z"/><path d="m126.568 167.52c-6.798 0-12.328-5.53-12.328-12.328v-21.922c0-.115.009-.245.033-.384-.021-.141-.033-.292-.033-.458 0-6.567 5.761-12.329 12.328-12.329 12.147 0 22.03-9.693 22.03-21.608 0-12.117-9.677-21.608-22.03-21.608-7.651 0-14.741 4.058-18.501 10.591-3.538 6.063-11.035 8.046-17.075 4.524-5.864-3.569-7.741-10.965-4.304-16.858 8.206-14.132 23.487-22.914 39.88-22.914 25.627 0 46.476 20.754 46.476 46.265 0 20.965-13.961 39.065-34.147 44.555v12.146c-.001 7.028-5.3 12.328-12.329 12.328zm-8.328-33.724v21.395c0 4.592 3.736 8.328 8.328 8.328 4.826 0 8.329-3.502 8.329-8.328v-13.701c0-.927.638-1.733 1.54-1.946 19.198-4.542 32.607-21.424 32.607-41.054 0-23.305-19.055-42.265-42.476-42.265-14.972 0-28.928 8.018-36.423 20.926-2.369 4.061-1.124 8.965 2.894 11.41 4.07 2.373 9.165 1.022 11.566-3.094 4.467-7.759 12.884-12.585 21.962-12.585 14.596 0 26.03 11.249 26.03 25.608 0 14.12-11.677 25.608-26.03 25.608-4.222 0-8.079 3.725-8.316 7.92.124.266.198.553.198.83.001.26-.044.596-.209.948z"/><path d="m126.568 203.775c-6.798 0-12.328-5.53-12.328-12.328v-3.795c0-6.683 5.646-12.328 12.328-12.328 6.914 0 12.329 5.415 12.329 12.328v3.795c-.001 7.028-5.3 12.328-12.329 12.328zm0-24.451c-4.514 0-8.328 3.814-8.328 8.328v3.795c0 4.592 3.736 8.328 8.328 8.328 4.826 0 8.329-3.502 8.329-8.328v-3.795c-.001-4.67-3.659-8.328-8.329-8.328z"/></g></svg>