<svg height="460pt" viewBox="0 -18 460.57595 460" width="460pt" xmlns="http://www.w3.org/2000/svg"><path d="m206.964844 95.992188-9.398438 44.65625c-6.328125 30.054687-9.828125 60.636718-10.457031 91.34375l10.480469 168c0 4.246093 1.6875 8.3125 4.6875 11.3125s7.070312 4.6875 11.3125 4.6875h218.753906c4.242188 0 8.3125-1.6875 11.3125-4.6875 6.246094-6.246094 6.246094-16.375 0-22.625l-4.691406-4.6875 6.875-29.214844c16.550781-70.324219 17.414062-143.433594 2.527344-214.128906l-9.402344-44.65625zm0 0" fill="#e5d3bd"/><path d="m238.382812 295.992188c4.496094.011718 8.765626 1.96875 11.714844 5.367187 2.945313 3.394531 4.277344 7.902344 3.652344 12.355469-8.734375 63.335937-62.863281 110.511718-126.800781 110.511718-63.933594 0-118.0625-47.175781-126.796875-110.511718-.625-4.460938.710937-8.96875 3.664062-12.367188 2.953125-3.398437 7.230469-5.351562 11.734375-5.355468zm0 0" fill="#ccc"/><path d="m22.964844 295.992188 44-44c33.140625-33.132813 86.863281-33.132813 120 0l44 44zm0 0" fill="#f2f2f2"/><path d="m86.964844 327.992188h24c30.929687 0 56 25.074218 56 56h-24c-30.925782 0-56-25.070313-56-56zm0 0" fill="#c69c6d"/><path d="m318.964844 215.992188h16v144h-16zm0 0" fill="#c69c6d"/><path d="m278.964844 199.992188c26.511718 0 48 21.492187 48 48-26.507813 0-48-21.488282-48-48zm0 0" fill="#a67c52"/><path d="m326.964844 159.992188c18.746094 18.746093 18.746094 49.136718 0 67.882812-18.746094-18.746094-18.746094-49.136719 0-67.882812zm0 0" fill="#c69c6d"/><path d="m278.964844 239.992188c26.511718 0 48 21.492187 48 48-26.507813 0-48-21.488282-48-48zm0 0" fill="#c69c6d"/><path d="m278.964844 279.992188c26.511718 0 48 21.492187 48 48-26.507813 0-48-21.488282-48-48zm0 0" fill="#a67c52"/><path d="m326.964844 327.992188c0-26.507813 21.492187-48 48-48 0 26.511718-21.488282 48-48 48zm0 0" fill="#c69c6d"/><path d="m326.964844 287.992188c0-26.507813 21.492187-48 48-48 0 26.511718-21.488282 48-48 48zm0 0" fill="#a67c52"/><path d="m326.964844 247.992188c0-26.507813 21.492187-48 48-48 0 26.511718-21.488282 48-48 48zm0 0" fill="#c69c6d"/><g fill="#e6e6e6"><path d="m110.964844 247.992188h16v16h-16zm0 0"/><path d="m150.964844 263.992188h16v16h-16zm0 0"/><path d="m70.964844 279.992188h16v16h-16zm0 0"/></g><path d="m218.367188 47.992188h215c8.230468.003906 15.636718 5.015624 18.695312 12.65625l7.929688 19.832031c1.664062 4.164062-.335938 8.890625-4.480469 10.59375-82.496094 33.96875-174.902344 34.878906-258.050781 2.542969l-5.429688-2.113282c-2.246094-.871094-3.992188-2.691406-4.773438-4.96875-.777343-2.28125-.515624-4.789062.726563-6.855468l13.148437-21.910157c3.632813-6.054687 10.171876-9.765625 17.234376-9.777343zm0 0" fill="#d6c2ad"/><path d="m222.964844 47.992188 42.074218-29.125c36.988282-25.601563 86.203126-24.664063 122.191407 2.316406l35.734375 26.808594" fill="#f2f2f2"/></svg>